<?xml version="1.0" standalone="no"?>
<!DOCTYPE svg PUBLIC "-//W3C//DTD SVG 20010904//EN"
 "http://www.w3.org/TR/2001/REC-SVG-20010904/DTD/svg10.dtd">
<svg version="1.0" xmlns="http://www.w3.org/2000/svg"
 width="468.000000pt" height="369.000000pt" viewBox="0 0 468.000000 369.000000"
 preserveAspectRatio="xMidYMid meet">
<rect width="100%" height="100%" fill="white"/>
<g transform="translate(0.000000,369.000000) scale(0.100000,-0.100000)"
fill="#000000" stroke="none">
<path d="M0 1845 l0 -1845 359 0 360 0 26 58 c19 39 32 92 42 167 32 247 122
621 224 934 41 124 80 225 91 238 42 45 164 129 218 151 30 11 120 44 200 73
234 83 383 150 396 179 17 37 45 121 51 153 7 38 -24 175 -48 209 -37 53 -79
262 -49 243 5 -3 10 2 11 12 0 12 4 8 11 -10 7 -21 7 -35 -1 -51 -14 -24 0
-76 20 -76 6 0 9 7 5 15 -3 9 0 15 9 15 8 0 16 9 16 20 2 33 4 38 12 46 10 10
9 26 -2 20 -5 -4 -7 3 -4 14 5 17 11 20 34 15 38 -8 37 5 -1 27 -35 20 -38 46
-16 124 8 27 17 65 20 84 17 102 44 162 105 229 23 26 40 35 73 38 57 5 97 4
132 -3 21 -5 27 -3 21 6 -14 23 106 3 131 -21 13 -12 27 -18 32 -15 6 3 15 -9
22 -28 6 -20 19 -36 32 -39 17 -5 19 -11 14 -34 -4 -15 -7 -36 -7 -45 0 -10
-14 -29 -31 -43 -23 -20 -28 -29 -19 -38 8 -8 11 -7 11 3 0 13 2 13 10 0 23
-35 11 -69 -32 -97 -24 -15 -45 -28 -48 -28 -20 -5 -60 -30 -64 -42 -3 -8 1
-27 9 -43 15 -29 15 -29 -19 -35 -19 -4 -42 -5 -53 -2 -13 3 -12 5 7 6 30 1
46 32 42 78 -4 38 -11 41 -118 49 -63 5 -84 4 -84 -5 0 -8 -7 -10 -19 -6 -28
9 -67 -56 -51 -85 6 -12 16 -18 23 -13 7 4 7 0 -2 -10 -7 -9 -10 -17 -5 -17 5
0 2 -5 -6 -10 -11 -7 -1 -10 35 -11 l50 -1 -30 -13 c-16 -8 -25 -14 -19 -15 6
0 11 -7 11 -15 0 -8 -5 -15 -11 -15 -8 0 -8 -2 0 -8 17 -11 24 -53 10 -58 -8
-3 -11 -15 -9 -28 3 -16 -5 -34 -25 -57 l-29 -34 19 -90 c11 -49 20 -98 21
-107 1 -9 6 -14 11 -11 5 4 7 -1 3 -10 -4 -11 -1 -17 8 -17 8 0 15 -7 15 -15
0 -8 4 -15 10 -15 5 0 7 6 4 14 -3 8 0 17 6 21 7 4 8 11 2 18 -6 8 -5 25 2 45
l12 34 52 -47 c46 -42 50 -48 39 -67 -9 -16 -9 -22 1 -25 6 -3 12 -11 12 -19
0 -8 5 -14 11 -14 7 0 9 -11 6 -30 -4 -20 -2 -30 5 -30 7 0 3 -7 -8 -15 -10
-8 -29 -15 -41 -15 -16 0 -21 -4 -16 -15 4 -11 -4 -9 -30 7 -24 16 -32 27 -25
35 6 8 4 10 -9 8 -10 -2 -20 -4 -23 -4 -3 -1 10 -15 28 -31 21 -18 31 -34 26
-41 -4 -7 -3 -9 3 -6 6 4 13 -4 15 -18 5 -22 3 -23 -16 -13 -12 6 -30 18 -41
27 -19 15 -19 15 -5 -3 14 -18 14 -19 -8 -7 -13 7 -20 17 -16 24 4 7 4 9 -1 5
-4 -4 -14 -3 -22 3 -7 6 -13 8 -13 4 0 -4 -7 -2 -15 5 -8 7 -15 9 -15 5 0 -4
-8 -1 -17 6 -16 13 -17 12 -4 -3 7 -10 17 -15 22 -13 4 3 13 -3 18 -14 12 -22
185 -146 226 -161 31 -12 45 -5 122 52 61 46 130 133 148 185 l13 38 9 -35 c8
-32 15 -37 79 -59 84 -29 340 -124 409 -153 100 -41 238 -155 274 -227 24 -45
121 -362 156 -502 12 -53 26 -132 30 -175 6 -75 88 -586 101 -630 5 -18 0 -22
-26 -27 -17 -4 -29 -11 -25 -17 4 -6 190 -10 536 -10 l530 0 -2 85 c-3 69 -6
85 -19 85 -13 0 -13 1 0 10 11 7 11 10 2 10 -7 0 -10 4 -7 10 3 5 -2 10 -12
10 -15 0 -16 2 -3 10 13 8 12 10 -4 10 -11 0 -16 3 -13 6 4 4 -2 15 -14 25
-14 12 -16 18 -7 22 7 3 2 6 -12 6 -20 1 -22 3 -10 11 13 9 13 10 0 10 -13 0
-13 1 0 10 12 8 10 10 -10 11 -14 0 -19 3 -12 6 10 4 8 9 -5 21 -10 10 -19 23
-21 31 -2 8 -12 22 -23 32 -15 12 -16 18 -7 22 7 3 2 6 -12 6 -20 1 -22 3 -10
11 13 9 13 10 0 10 -13 0 -13 1 0 10 12 8 10 10 -10 11 -14 0 -19 3 -12 6 8 3
2 15 -19 34 -17 16 -25 29 -19 29 7 0 3 9 -9 19 -16 14 -18 21 -9 24 7 3 2 6
-12 6 -20 1 -22 3 -10 11 11 7 11 10 2 10 -7 0 -10 5 -7 10 3 6 -2 10 -12 11
-11 0 -13 3 -5 6 8 3 2 14 -18 33 -20 19 -26 30 -18 33 8 3 6 6 -5 6 -10 1
-15 6 -12 11 3 6 0 10 -7 10 -9 0 -9 3 2 10 12 8 10 10 -10 11 -14 0 -19 3
-12 6 9 3 7 10 -9 24 -12 10 -16 19 -9 19 6 0 -2 13 -19 29 -21 19 -27 31 -19
34 7 3 2 6 -12 7 -14 1 -19 4 -12 7 9 3 7 10 -9 24 -13 11 -17 19 -9 19 8 0 4
8 -9 19 -16 14 -18 21 -9 24 7 3 2 6 -12 6 -20 1 -22 3 -10 11 11 7 11 10 2
10 -7 0 -10 5 -7 10 3 6 -2 10 -12 11 -11 0 -13 3 -5 6 8 3 2 14 -18 33 -20
19 -26 30 -18 33 8 3 6 6 -5 6 -10 1 -15 6 -12 11 3 6 0 10 -7 10 -9 0 -9 3 2
10 12 8 10 10 -10 11 -14 0 -19 3 -12 6 9 3 7 10 -9 24 -12 10 -16 19 -9 19 6
0 -2 13 -19 29 -21 19 -27 31 -19 34 7 3 2 6 -12 6 -20 1 -22 3 -10 11 13 9
13 10 0 10 -13 0 -13 1 0 10 12 8 10 10 -10 11 -14 0 -19 3 -12 6 9 4 8 10 -7
22 -11 10 -21 24 -23 32 -2 8 -11 21 -21 31 -13 12 -15 17 -5 21 7 3 2 6 -12
6 -20 1 -22 3 -10 11 13 9 13 10 0 10 -13 0 -13 1 0 10 12 8 10 10 -10 11 -14
0 -19 3 -12 6 9 4 7 10 -7 22 -12 10 -18 21 -14 25 3 3 -2 6 -13 6 -16 0 -17
2 -4 10 13 8 12 10 -3 10 -10 0 -15 5 -12 10 3 6 0 10 -7 10 -9 0 -9 3 2 10
12 8 10 10 -10 11 -14 0 -19 3 -12 6 9 3 7 10 -9 24 -12 10 -16 19 -9 19 6 0
-2 14 -20 30 -18 17 -26 30 -20 30 7 0 3 9 -9 19 -16 14 -18 21 -9 24 7 3 2 6
-12 6 -20 1 -22 3 -10 11 11 7 11 10 2 10 -7 0 -10 5 -7 10 3 6 -2 10 -12 10
-15 0 -16 2 -3 10 13 8 12 10 -4 10 -11 0 -16 3 -13 6 4 4 -2 15 -14 25 -14
12 -16 18 -7 22 7 3 2 6 -12 6 -20 1 -22 3 -10 11 13 9 13 10 0 10 -13 0 -13
1 0 10 12 8 10 10 -10 11 -14 0 -19 3 -12 6 10 4 8 9 -5 21 -10 10 -19 23 -21
31 -2 8 -12 22 -23 32 -15 12 -16 18 -7 22 7 3 2 6 -12 6 -20 1 -22 3 -10 11
13 9 13 10 0 10 -13 0 -13 1 0 10 12 8 10 10 -10 11 -14 0 -19 3 -12 6 8 3 2
15 -19 34 -17 16 -25 29 -19 29 7 0 3 9 -9 19 -16 14 -18 21 -9 24 7 3 2 6
-12 6 -20 1 -22 3 -10 11 11 7 11 10 2 10 -7 0 -10 5 -7 10 3 6 -2 10 -12 11
-11 0 -13 3 -5 6 8 3 2 14 -18 33 -20 19 -26 30 -18 33 8 3 6 6 -5 6 -10 1
-15 5 -12 11 3 6 0 10 -7 10 -9 0 -9 3 2 10 12 8 10 10 -10 11 -14 0 -19 3
-12 6 9 3 7 10 -9 24 -12 10 -16 19 -9 19 6 0 -2 13 -19 29 -21 19 -27 31 -19
34 7 3 2 6 -12 6 -20 1 -22 3 -10 11 13 9 13 10 0 10 -13 0 -13 1 0 10 12 8
10 10 -10 11 -14 0 -19 3 -12 6 9 4 7 10 -8 23 -15 13 -17 19 -8 23 8 3 5 6
-6 6 -11 1 -16 4 -13 7 4 4 -2 15 -14 25 -14 12 -16 18 -7 22 7 3 2 6 -12 6
-20 1 -22 3 -10 11 13 9 13 10 0 10 -13 0 -13 1 0 10 12 8 10 10 -10 11 -14 0
-19 3 -12 6 9 4 7 10 -8 23 -12 10 -21 21 -21 24 3 20 -1 26 -15 26 -8 0 -12
5 -9 10 3 6 0 10 -7 10 -9 0 -9 3 2 10 12 8 10 10 -10 10 -20 0 -22 2 -10 10
13 9 13 10 0 10 -13 0 -13 1 0 10 12 8 10 10 -10 11 -14 0 -19 3 -12 6 8 3 2
14 -18 33 -20 19 -26 30 -18 33 7 3 2 6 -12 6 -20 1 -22 3 -10 11 13 9 13 10
0 10 -13 0 -13 1 0 10 12 8 10 10 -10 10 -20 0 -22 2 -10 10 11 7 11 10 2 10
-7 0 -10 5 -7 10 3 6 -1 10 -9 10 -14 0 -18 6 -15 26 0 3 -9 14 -21 24 -15 13
-17 19 -8 23 7 3 2 6 -12 6 -20 1 -22 3 -10 11 13 9 13 10 0 10 -13 0 -13 1 0
10 12 8 10 10 -10 11 -14 0 -19 3 -12 6 9 4 7 10 -7 22 -12 10 -18 21 -14 25
3 3 -2 6 -13 7 -11 0 -14 3 -6 6 9 4 7 10 -8 23 -15 13 -17 19 -8 23 7 3 2 6
-12 7 -14 1 -19 4 -12 7 9 3 7 10 -9 24 -12 10 -16 19 -9 19 6 0 -2 14 -20 30
-18 17 -26 30 -20 30 7 0 3 9 -9 19 -16 14 -18 21 -9 24 7 3 2 6 -12 6 -20 1
-22 3 -10 11 11 7 11 10 2 10 -7 0 -10 5 -7 10 3 6 -2 10 -12 11 -11 0 -13 3
-5 6 9 4 7 10 -8 23 -15 13 -17 19 -8 23 7 3 2 6 -12 7 -14 1 -19 4 -12 7 9 4
7 10 -7 22 -12 10 -18 21 -14 25 3 3 -2 6 -13 7 -11 0 -14 3 -6 6 9 4 7 10 -8
23 -15 13 -17 19 -8 23 7 3 2 6 -12 7 -14 1 -19 4 -12 7 9 3 7 10 -9 24 -12
10 -17 19 -10 19 9 0 8 5 -3 15 -13 13 -164 15 -1235 15 l-1221 0 0 -1845z
m1875 625 c3 -5 1 -10 -4 -10 -6 0 -11 5 -11 10 0 6 2 10 4 10 3 0 8 -4 11
-10z m75 -10 c0 -5 -4 -10 -10 -10 -5 0 -10 5 -10 10 0 6 5 10 10 10 6 0 10
-4 10 -10z m431 -105 c1 -30 2 -63 2 -72 2 -42 -14 -116 -30 -137 l-17 -22
-38 25 c-41 26 -46 44 -23 75 21 28 19 34 -14 41 -25 5 -28 10 -27 38 1 22 7
32 18 32 9 0 30 15 47 34 18 20 31 29 31 20 1 -10 3 -9 11 4 5 9 17 17 24 17
11 0 15 -14 16 -55z m-107 -213 c3 -5 -1 -9 -9 -9 -8 0 -12 4 -9 9 3 4 7 8 9
8 2 0 6 -4 9 -8z m15 -51 c5 -7 12 -12 17 -11 5 1 10 -3 12 -8 2 -6 -17 -8
-45 -6 -26 2 -52 3 -57 4 -4 0 2 8 15 19 26 21 46 21 58 2z m6 -65 c7 3 16 1
19 -4 3 -6 15 -8 27 -5 17 5 20 2 17 -13 -3 -15 -11 -18 -38 -16 -19 2 -37 8
-38 13 -2 5 -8 6 -14 3 -6 -4 -14 0 -19 7 -9 16 11 33 25 19 4 -4 14 -6 21 -4z
m105 -25 c0 -5 -7 -14 -15 -21 -13 -10 -15 -9 -15 9 0 12 6 21 15 21 8 0 15
-4 15 -9z m-110 -32 c0 -5 -4 -9 -10 -9 -5 0 -10 7 -10 16 0 8 5 12 10 9 6 -3
10 -10 10 -16z"/>
<path d="M1970 1856 c0 -8 4 -17 9 -20 5 -4 7 3 4 14 -6 23 -13 26 -13 6z"/>
<path d="M1990 1816 c0 -2 8 -10 18 -17 15 -13 16 -12 3 4 -13 16 -21 21 -21
13z"/>
<path d="M2230 1522 c-48 -24 -160 -91 -160 -95 0 -1 30 -1 68 1 l67 3 46 -45
46 -45 -10 -58 c-7 -39 -6 -101 2 -201 11 -136 10 -378 -4 -899 l-6 -183 161
0 161 0 -5 73 c-3 39 -8 122 -11 182 -18 358 -79 825 -125 959 -16 47 -16 56
-4 86 21 50 81 118 106 122 19 2 12 11 -42 49 -95 67 -132 76 -223 55 -7 -1
-9 -1 -4 1 4 3 7 9 7 14 0 13 -9 11 -70 -19z m245 -122 c17 0 9 -26 -22 -78
l-19 -31 -11 40 c-8 32 -8 43 3 54 8 7 14 22 14 32 1 17 1 17 11 1 5 -10 16
-18 24 -18z"/>
<path d="M2040 1410 c-13 -8 -12 -10 3 -10 9 0 17 5 17 10 0 12 -1 12 -20 0z"/>
<path d="M3327 603 c-4 -3 -7 -35 -7 -69 0 -35 -4 -66 -10 -69 -5 -3 -10 -29
-10 -57 0 -28 2 -49 5 -46 14 14 47 248 35 248 -4 0 -10 -3 -13 -7z"/>
<path d="M1377 411 c-4 -18 -15 -32 -27 -36 -26 -8 -25 -21 9 -78 l28 -48 17
63 c13 47 14 71 7 90 -14 38 -28 42 -34 9z"/>
<path d="M3278 215 c-2 -43 -3 -49 -10 -60 -3 -6 -10 -43 -14 -83 l-7 -73 59
3 59 3 3 58 c2 31 7 57 12 57 6 0 10 8 10 19 0 13 -11 20 -42 27 -35 7 -43 13
-44 32 -1 13 -6 28 -13 35 -8 8 -11 3 -13 -18z"/>
<path d="M1320 60 c-25 -11 -37 -19 -27 -19 14 -1 17 -6 12 -21 -5 -16 3 -12
29 15 30 30 44 48 34 44 -2 -1 -23 -9 -48 -19z"/>
</g>
</svg>
